<svg width="245.34" height="60" clip-rule="evenodd" fill-rule="evenodd" stroke-linecap="round" stroke-linejoin="round" stroke-miterlimit="1.5" viewBox="0 0 245.34 90" xml:space="preserve" xmlns="http://www.w3.org/2000/svg"><path d="M306.68 18.85c0-10.4-8.45-18.85-18.85-18.85H-42.49a18.86 18.86 0 0 0-18.85 18.85v52.3c0 10.4 8.45 18.85 18.85 18.85h330.32c10.4 0 18.85-8.45 18.85-18.85z" fill="#fddb23"/><g fill="#fff" aria-label="Buy me a Donut"><path d="m52 40.56.57-1.32.16-.36.16-.36v-.08q.04-.04.04-.08l.68-1.48q.4-.8 1.08-2.24-2.2.6-3.44 1.48T50 37.96q0 .32.16.56.2.2.56.32.2.08.32.16.16.04.24.08.16.12.2.24t.04.32q0 .48-.4 1.08-.36.56-1.04 1.24-.96.88-2.04 1.44-1.04.52-2.12.68-.16 0-.36.04h-.36q-1.96 0-3.32-1.24-1.32-1.24-1.32-3.08 0-2.68 2.16-4.84 2.16-2.2 5.88-3.28 1.72-.52 3.68-.72 2-.24 4.6-.24 2-2.72 4.32-4.08 2.36-1.36 5-1.36 1.4 0 2.32.68.92.64.92 1.68v.12q-.08.96-1.04 1.8-.96.8-2.08.84h-.12q-.32 0-.44-.08t-.24-.36l-.08-.16q0-.12-.04-.24-.08-.32-.28-.44-.2-.16-.6-.16-.28 0-.6.08-.32.04-.6.16-.64.24-1.24.72t-1.16 1.16q3.28.52 5 2 1.76 1.44 1.76 3.6 0 1.88-1.16 3.12-1.12 1.24-3.48 1.92 2.16.44 3.2 1.76 1.04 1.28 1.04 3.56 0 3.92-2.72 7-2.68 3.08-6.12 3.08-2.12 0-3.44-1.16-1.28-1.16-1.28-3.08v-.32q0-.2.04-.4.16-1.64.88-3.08.76-1.44 1.6-1.8.12-.08.24-.08.12-.04.24-.04.28 0 .4.04t.2.36q0 .12.04.28t.08.36q.08.28.32.52.28.24.56.24h.08q.08 0 .12-.04.6-.12 1.08-.84.52-.76.56-1.6v-.12q0-1.36-.92-2.04t-2.8-.68h-.64l-.4 1.24-.4 1.24q-.6 1.64-1.28 3.24-.64 1.6-1.36 3.04-2.08 4.28-5.56 6.64-3.44 2.4-7.6 2.4-3.76 0-6.28-2.32T30.4 53.4q0-3.8 3.12-6.48 3.16-2.72 7.52-2.72 1.28 0 1.84.28.6.28.6.92v.32q-.04.16-.2.4-.16.2-.56.8-.12.16-.2.36-.04.2-.04.48 0 .64.68 1.16.72.52 1.64.52.24 0 .48-.04t.48-.12q.8-.2 1.56-.72.8-.56 1.36-1.32.64-.84 1.16-1.84.56-1.04 1.04-2.16l.56-1.32zm4.65-.28h.2q1.76 0 2.92-1.04 1.2-1.04 1.2-2.52 0-.88-.56-1.44-.52-.56-1.56-.76-.56.92-1.04 2.04-.44 1.12-.88 2.64l-.16.56q-.04.24-.12.52z"/><path d="m84.65 43.8-1.36 6.28-.16.76q-.04.32-.04.48 0 .52.32.88.32.32.8.32.2 0 .4-.04l.44-.16q.28-.12.52-.16.24-.08.4-.08.24 0 .44.2t.2.44q0 .32-.2.72-.2.36-.52.72-.24.28-.56.56t-.68.52q-.56.4-1.2.72-.6.28-1.24.48t-1.28.28q-.6.12-1.16.12-1.44 0-2.32-.72t-.96-1.96q-.6.52-1.24 1-.64.44-1.32.76-.88.48-1.72.68-.84.24-1.6.24-1.52 0-2.6-.88-1.08-.92-1.08-2.2v-.36L67 53l1.48-7.12q.08-.28.08-.52.04-.28.04-.48 0-.44-.16-.72-.16-.32-.56-.6-.08-.04-.12-.04-.04-.04-.12-.08.4-.32.8-.6t.84-.56q.96-.56 1.92-.88t1.76-.32q1.08 0 1.68.6.64.56.64 1.6v.4q0 .04-.04.08v.04l-1.16 5.56-.08.48q-.04.2-.04.32 0 .48.28.76.32.28.8.28.84 0 1.36-.56.52-.6.84-1.88l.68-2.88v-.08q.04-.08.04-.12.08-.24.08-.48.04-.24.04-.4 0-.4-.16-.64-.12-.24-.48-.48-.08-.08-.2-.12-.12-.08-.24-.12 1.32-1.04 2.44-1.6t2.2-.72h.4q.2-.04.4-.04 1.04 0 1.64.56.64.56.64 1.52v.16q0 .08-.04.16 0 .08-.04.16v.16z"/><path d="m103.13 43.8-2.32 10.84q-.96 4.56-4.04 7.24-3.04 2.72-7.28 2.72-2.48 0-3.96-1.16-1.48-1.12-1.48-3 0-1.08.36-1.84.4-.76 1.4-1.44.2-.16.4-.28.24-.12.48-.28.28 1.2 1.04 1.8.8.64 2 .64 1.6 0 2.84-1.2 1.24-1.16 1.84-3.2-1.28.84-2.28 1.32-.96.44-1.88.56-.28.04-.52.04-.24.04-.48.04-1.68 0-2.68-.92t-1-2.52v-.48q.04-.32.12-.64v-.24l.08-.24 1.28-5.84q.04-.08.04-.16t.04-.16v-.32q.04-.2.04-.32 0-.24-.04-.4-.04-.2-.12-.4-.08-.16-.28-.32-.16-.2-.48-.44 1.32-1 2.36-1.52t2-.72q.28-.04.56-.04.28-.04.56-.04.96 0 1.6.56t.64 1.44q0 .16-.04.4 0 .2-.08.52L92.73 49q-.08.28-.12.52-.04.2-.04.36-.04.44.28.8.36.32.8.32.8 0 1.32-.56t.8-1.8l.68-2.92q.04-.08.04-.16 0-.12.04-.2.04-.2.04-.4.04-.2.04-.32 0-.4-.12-.64-.08-.24-.32-.48-.08-.08-.2-.16-.08-.08-.2-.16 1.36-1.12 2.64-1.68t2.44-.56q1.04 0 1.68.52.64.48.68 1.36v.48q0 .24-.08.48zM109.73 57.52l2.56-11.48q.04-.12.04-.24t.04-.2q.04-.24.04-.48.04-.24.04-.4 0-.6-.2-.88-.16-.32-.68-.56.68-.56 1.32-1 .68-.44 1.4-.72.68-.32 1.36-.44.68-.16 1.32-.16 1.04 0 1.64.6t.64 1.72q1.16-.92 2.04-1.44t1.68-.76q.4-.12.8-.16.44-.04.88-.04 1.4 0 2.28.64.92.6 1.24 1.76.88-.72 1.68-1.2.84-.48 1.64-.76.56-.2 1.12-.28.6-.12 1.2-.12 1.6 0 2.6.88 1.04.88 1.04 2.28 0 .2-.04.4v.32q-.04.08-.04.2 0 .08-.04.16l-1.08 5.12q0 .04-.04.08v.08l-.08.48q-.04.24-.04.36 0 .52.32.88.36.36.84.36h.16q.12 0 .24-.04.08 0 .16-.04l.2-.08.56-.2q.24-.08.4-.08.24 0 .4.2.2.2.2.48-.04.44-.4 1-.36.52-1.04 1.08-.12.12-.28.24l-.28.2q-.76.56-1.6.92-.84.32-1.72.48l-.64.08q-.32.04-.64.04-1.68 0-2.76-.88-1.04-.92-1.04-2.36v-.24q.04-.16.04-.32.04-.08.04-.12.04-.08.04-.16l.96-4.16q.08-.2.08-.4.04-.2.04-.36 0-.64-.28-.92-.28-.32-.84-.32-.76 0-1.24.6t-.8 2l-.96 4.52q-.28 1.36-1.04 2.08-.76.68-1.92.68h-2.4q-.28.04-.56.16-.32.12-.64.32l-.68.56 1.96-8.92q.04-.12.04-.24.04-.12.04-.24.04-.12.04-.24v-.36q0-.44-.28-.72t-.72-.28q-.76 0-1.28.64t-.84 2.04l-1 4.52q-.32 1.52-1.04 2.16-.72.6-2.16.6h-2.2q-.36.04-.68.2-.24.12-.52.32t-.64.52z"/><path d="M145.09 50.76v.2q0 .76.56 1.24.6.44 1.48.44.48 0 1.12-.12.64-.16 1.28-.44l.48-.16.48-.24q.08-.04.12-.04l.08-.08.32-.16q.28-.16 1.36-.84.16-.08.32-.12.16-.08.32-.12.08-.04.16-.04t.16 0q.4 0 .64.24.28.24.28.68 0 .64-.56 1.4t-1.6 1.6q-1.76 1.36-3.6 2.08-1.8.68-3.64.68-3.04 0-5-1.8-1.92-1.8-1.92-4.72 0-3.8 3.16-6.64 3.2-2.84 7.44-2.84 2.28 0 3.72 1.16 1.48 1.16 1.48 3 0 2.28-2.44 3.88-2.4 1.56-6.2 1.76zm.4-3.6q1.64-.24 2.4-.68.8-.44.8-1.12 0-.4-.24-.64-.24-.28-.6-.28-.76 0-1.4.72t-.96 2zM179.09 43.4l-1.48 6.64-.2.88q-.04.32-.04.52-.04.4.32.76.36.32.84.32h.28l.28-.08h.12l.16-.08q.32-.12.56-.16.24-.08.4-.08.24 0 .44.24.2.2.2.48 0 .32-.2.72-.2.36-.6.72l-.24.24q-.08.08-.2.16-.76.68-1.68 1.16-.88.48-1.8.72-.48.12-1 .2-.48.08-.96.08-1.44 0-2.36-.88-.92-.92-.92-2.32v-.4q0-.24.04-.52-.72.88-1.08 1.36-.36.44-.68.76-.04.04-.12.08l-.08.08q-.08.12-.16.2t-.2.16q-.44.44-.96.76t-1.08.52q-.4.12-.76.2t-.72.08q-1.76 0-2.92-1.44-1.16-1.48-1.16-3.8 0-4.04 2.72-7.32 2.76-3.32 6.08-3.32 1.16 0 2.12.44 1 .4 1.76 1.28 1.08-.76 1.68-1.08.64-.36 1.2-.48.16-.04.36-.04.2-.04.4-.04.8 0 1.28.44.48.4.48 1.08 0 .12-.04.32 0 .2-.08.44zm-8.12 1.8q-.84-.04-1.56.76-.68.8-.68 1.84 0 .68.32 1.08.36.4 1 .4.8 0 1.44-.84.68-.88.72-1.88v-.12q0-.56-.32-.88t-.92-.36zM213.61 30.48q.96-.96 1.88-1.72t1.84-1.28q1.28-.76 2.56-1.12 1.32-.36 2.72-.36 1.64 0 2.72 1 1.12.96 1.12 2.36 0 1.2-.84 2.08-.8.88-1.92.88-.68 0-.88-.2-.16-.24-.2-1.08-.04-.28-.44-.48-.36-.24-.88-.24-.84 0-1.88.56-1 .56-2.16 1.72 2.68 2.2 3.88 4.88 1.24 2.64 1.24 6.12 0 5.8-3.4 9.64-3.36 3.8-8.44 3.8-.44 0-.84-.04-.4 0-.8-.04-.88-.12-1.88-.44-.96-.28-2.6-.92-.16-.08-.48-.16l-.68-.28q-1.96 1.64-4.08 2.44t-4.64.8q-3.24 0-5.24-1.48-2-1.44-2-3.8 0-2.08 1.64-3.48 1.64-1.44 4.08-1.44h.48q.28 0 .52.04 1.56.08 3.44.6 1.88.48 5.36 1.68.2-.28.36-.56.2-.28.36-.56.16-.24.28-.48.16-.24.28-.52.4-.8.88-1.96.48-1.2 1.24-3.2l.84-2.24.64-1.48.08-.24.16-.28.24-.48q.12-.28.28-.56-.52-.12-.92-.16-.36-.08-.68-.12h-.48q-1.96 0-3.36 1.08-1.36 1.08-1.36 2.6 0 .76.48 1.16.52.4 1.44.44.6.04.84.24.28.16.28.6 0 .12-.04.24 0 .08-.04.16-.28 1.04-1.92 1.96-1.6.92-3.48 1.12-.24 0-.48.04h-.4q-2.84 0-4.68-1.8-1.84-1.84-1.84-4.72 0-4.88 4.32-8.32 4.36-3.48 10.4-3.48 1.56 0 3 .28 1.48.24 2.92.76.28.08.56.2l.6.24zm-13.6 23.08q-.32-.16-.72-.28-.36-.16-.76-.28-.8-.24-1.56-.4-.72-.2-1.08-.2-.56 0-1 .36t-.44.88q0 .56.56 1 .56.4 1.32.4h.52q.28-.04.52-.12.56-.12 1.16-.44t1.48-.92zm6.64-1.84 1.04.32q.44.08.8.12h.44q2.36 0 4.08-2.2 1.76-2.2 1.76-5.16 0-1.52-.6-2.8t-1.8-2.28l-.36.64q-.16.24-.28.52-.04.04-.08.12-.04.04-.08.12l-.24.52-.28.68q-.04.08-.08.12v.08l-.24.56q-.16.48-1.16 3-.4.96-.72 1.68t-.6 1.36q-.2.36-.4.68-.16.32-.36.64t-.4.64-.44.64z"/><path d="M231.85 41.04q2.96 0 4.72 1.8 1.8 1.76 1.8 4.64 0 3.92-2.76 6.64t-6.76 2.72q-2.88 0-4.76-1.8-1.84-1.8-1.84-4.6 0-3.92 2.8-6.64 2.8-2.76 6.8-2.76zm-.64 3.96q-.8 0-1.48.84-.64.8-.64 1.84 0 .76.36 1.24.4.44 1 .44.84 0 1.48-.8.68-.84.68-1.92 0-.72-.4-1.16-.36-.48-1-.48z"/><path d="m237.17 57.36 2.52-11.4.12-.88q.08-.4.08-.64 0-.44-.2-.72-.2-.32-.68-.56 1.52-1.16 2.8-1.68 1.32-.56 2.56-.56 1.16 0 1.72.56.6.52.68 1.68 1.32-1.16 2.68-1.72 1.4-.56 2.8-.56 1.6 0 2.6.92 1 .88 1 2.32 0 .16-.04.4 0 .24-.04.44 0 .08-.04.16 0 .08-.04.16l-1.16 5q-.08.4-.16.68-.04.24-.04.44-.04.44.32.76t.92.32q.2 0 .36-.04l.36-.08.64-.2q.28-.08.4-.08.28 0 .44.2t.16.52q0 .52-.56 1.2-.52.64-1.48 1.32-.88.6-1.92.96-1 .36-2.04.44-.16.04-.36.04h-.32q-1.72 0-2.72-.88-.96-.88-.96-2.36v-.24q.04-.16.04-.32.04-.04.04-.12.04-.08.04-.16l.88-4.24v-.08q.04-.08.04-.12.04-.2.04-.36.04-.2.04-.32 0-.48-.32-.76-.28-.28-.8-.28-.76 0-1.32.64t-.84 1.8l-1.08 4.8q-.28 1.24-1.08 1.96-.76.72-1.8.72h-1.68q-.68 0-1.16.08-.44.12-.88.4l-.28.16q-.12.12-.28.24z"/><path d="m274.37 43.8-1.36 6.28-.16.76q-.04.32-.04.48 0 .52.32.88.32.32.8.32.2 0 .4-.04l.44-.16q.28-.12.52-.16.24-.08.4-.08.24 0 .44.2t.2.44q0 .32-.2.72-.2.36-.52.72-.24.28-.56.56t-.68.52q-.56.4-1.2.72-.6.28-1.24.48t-1.28.28q-.6.12-1.16.12-1.44 0-2.32-.72t-.96-1.96q-.6.52-1.24 1-.64.44-1.32.76-.88.48-1.72.68-.84.24-1.6.24-1.52 0-2.6-.88-1.08-.92-1.08-2.2v-.36l.08-.4 1.48-7.12q.08-.28.08-.52.04-.28.04-.48 0-.44-.16-.72-.16-.32-.56-.6-.08-.04-.12-.04-.04-.04-.12-.08.4-.32.8-.6t.84-.56q.96-.56 1.92-.88t1.76-.32q1.08 0 1.68.6.64.56.64 1.6v.4q0 .04-.04.08v.04l-1.16 5.56-.08.48q-.04.2-.04.32 0 .48.28.76.32.28.8.28.84 0 1.36-.56.52-.6.84-1.88l.68-2.88v-.08q.04-.08.04-.12.08-.24.08-.48.04-.24.04-.4 0-.4-.16-.64-.12-.24-.48-.48-.08-.08-.2-.12-.12-.08-.24-.12 1.32-1.04 2.44-1.6t2.2-.72h.4q.2-.04.4-.04 1.04 0 1.64.56.64.56.64 1.52v.16q0 .08-.04.16 0 .08-.04.16v.16z"/><path d="M284.05 41.28h1.92q.6 0 .88.28.32.24.32.76 0 1.44-.48 2.16-.48.68-1.48.68h-2.08l-.08.2v.12l-.12.48q-.08.32-.32 1.48-.04.24-.16.76l-.28 1.16q-.12.44-.2.88-.04.4-.04.76 0 .76.44 1.2.48.44 1.36.44.32 0 .68-.08.4-.12.92-.32.28-.12.52-.16.24-.08.4-.08.28 0 .44.2.2.16.2.48 0 .44-.4 1-.36.52-1.12 1.12-.12.08-.24.2l-.28.16q-.84.6-1.88 1-1.04.36-2.08.48-.28.04-.56.04-.24.04-.52.04-2.04 0-3.4-1.12t-1.36-2.84v-.64q.08-.56.28-1.36.24-.8.92-2.84.16-.52.24-.88l.24-.72.08-.32.08-.36v-.24l.08-.24q-.72-.08-1.08-.4-.32-.32-.32-.96v-.2q.04-.12.04-.24.16-.52.84-1.2.72-.72 2.56-2.28 1.92-1.64 3.16-2.4t1.88-.76q.44 0 .72.28.28.24.24.64 0 .2-.08.44-.04.24-.16.56-.04.12-.12.28l-.08.32-.08.28-.08.24-.24.88-.12.64z"/></g><g aria-label="Buy me a Donut"><path d="m51 39.56.57-1.32.16-.36.16-.36v-.08q.04-.04.04-.08l.68-1.48q.4-.8 1.08-2.24-2.2.6-3.44 1.48T49 36.96q0 .32.16.56.2.2.56.32.2.08.32.16.16.04.24.08.16.12.2.24t.04.32q0 .48-.4 1.08-.36.56-1.04 1.24-.96.88-2.04 1.44-1.04.52-2.12.68-.16 0-.36.04h-.36q-1.96 0-3.32-1.24-1.32-1.24-1.32-3.08 0-2.68 2.16-4.84 2.16-2.2 5.88-3.28 1.72-.52 3.68-.72 2-.24 4.6-.24 2-2.72 4.32-4.08 2.36-1.36 5-1.36 1.4 0 2.32.68.92.64.92 1.68v.12q-.08.96-1.04 1.8-.96.8-2.08.84h-.12q-.32 0-.44-.08t-.24-.36l-.08-.16q0-.12-.04-.24-.08-.32-.28-.44-.2-.16-.6-.16-.28 0-.6.08-.32.04-.6.16-.64.24-1.24.72t-1.16 1.16q3.28.52 5 2 1.76 1.44 1.76 3.6 0 1.88-1.16 3.12-1.12 1.24-3.48 1.92 2.16.44 3.2 1.76 1.04 1.28 1.04 3.56 0 3.92-2.72 7-2.68 3.08-6.12 3.08-2.12 0-3.44-1.16-1.28-1.16-1.28-3.08v-.32q0-.2.04-.4.16-1.64.88-3.08.76-1.44 1.6-1.8.12-.08.24-.08.12-.04.24-.04.28 0 .4.04t.2.36q0 .12.04.28t.08.36q.08.28.32.52.28.24.56.24h.08q.08 0 .12-.04.6-.12 1.08-.84.52-.76.56-1.6v-.12q0-1.36-.92-2.04t-2.8-.68h-.64l-.4 1.24-.4 1.24q-.6 1.64-1.28 3.24-.64 1.6-1.36 3.04-2.08 4.28-5.56 6.64-3.44 2.4-7.6 2.4-3.76 0-6.28-2.32T29.4 52.4q0-3.8 3.12-6.48 3.16-2.72 7.52-2.72 1.28 0 1.84.28.6.28.6.92v.32q-.04.16-.2.4-.16.2-.56.8-.12.16-.2.36-.04.2-.04.48 0 .64.68 1.16.72.52 1.64.52.24 0 .48-.04t.48-.12q.8-.2 1.56-.72.8-.56 1.36-1.32.64-.84 1.16-1.84.56-1.04 1.04-2.16l.56-1.32zm4.65-.28h.2q1.76 0 2.92-1.04 1.2-1.04 1.2-2.52 0-.88-.56-1.44-.52-.56-1.56-.76-.56.92-1.04 2.04-.44 1.12-.88 2.64l-.16.56q-.04.24-.12.52z"/><path d="m83.65 42.8-1.36 6.28-.16.76q-.04.32-.04.48 0 .52.32.88.32.32.8.32.2 0 .4-.04l.44-.16q.28-.12.52-.16.24-.08.4-.08.24 0 .44.2t.2.44q0 .32-.2.72-.2.36-.52.72-.24.28-.56.56t-.68.52q-.56.4-1.2.72-.6.28-1.24.48t-1.28.28q-.6.12-1.16.12-1.44 0-2.32-.72t-.96-1.96q-.6.52-1.24 1-.64.44-1.32.76-.88.48-1.72.68-.84.24-1.6.24-1.52 0-2.6-.88-1.08-.92-1.08-2.2v-.36L66 52l1.48-7.12q.08-.28.08-.52.04-.28.04-.48 0-.44-.16-.72-.16-.32-.56-.6-.08-.04-.12-.04-.04-.04-.12-.08.4-.32.8-.6t.84-.56q.96-.56 1.92-.88t1.76-.32q1.08 0 1.68.6.64.56.64 1.6v.4q0 .04-.04.08v.04l-1.16 5.56-.08.48q-.04.2-.04.32 0 .48.28.76.32.28.8.28.84 0 1.36-.56.52-.6.84-1.88l.68-2.88v-.08q.04-.08.04-.12.08-.24.08-.48.04-.24.04-.4 0-.4-.16-.64-.12-.24-.48-.48-.08-.08-.2-.12-.12-.08-.24-.12 1.32-1.04 2.44-1.6t2.2-.72h.4q.2-.04.4-.04 1.04 0 1.64.56.64.56.64 1.52v.16q0 .08-.04.16 0 .08-.04.16v.16z"/><path d="m102.13 42.8-2.32 10.84q-.96 4.56-4.04 7.24-3.04 2.72-7.28 2.72-2.48 0-3.96-1.16-1.48-1.12-1.48-3 0-1.08.36-1.84.4-.76 1.4-1.44.2-.16.4-.28.24-.12.48-.28.28 1.2 1.04 1.8.8.64 2 .64 1.6 0 2.84-1.2 1.24-1.16 1.84-3.2-1.28.84-2.28 1.32-.96.44-1.88.56-.28.04-.52.04-.24.04-.48.04-1.68 0-2.68-.92t-1-2.52v-.48q.04-.32.12-.64v-.24l.08-.24 1.28-5.84q.04-.08.04-.16t.04-.16v-.32q.04-.2.04-.32 0-.24-.04-.4-.04-.2-.12-.4-.08-.16-.28-.32-.16-.2-.48-.44 1.32-1 2.36-1.52t2-.72q.28-.04.56-.04.28-.04.56-.04.96 0 1.6.56t.64 1.44q0 .16-.04.4 0 .2-.08.52L91.73 48q-.08.28-.12.52-.04.2-.04.36-.04.44.28.8.36.32.8.32.8 0 1.32-.56t.8-1.8l.68-2.92q.04-.08.04-.16 0-.12.04-.2.04-.2.04-.4.04-.2.04-.32 0-.4-.12-.64-.08-.24-.32-.48-.08-.08-.2-.16-.08-.08-.2-.16 1.36-1.12 2.64-1.68t2.44-.56q1.04 0 1.68.52.64.48.68 1.36v.48q0 .24-.08.48zM108.73 56.52l2.56-11.48q.04-.12.04-.24t.04-.2q.04-.24.04-.48.04-.24.04-.4 0-.6-.2-.88-.16-.32-.68-.56.68-.56 1.32-1 .68-.44 1.4-.72.68-.32 1.36-.44.68-.16 1.32-.16 1.04 0 1.64.6t.64 1.72q1.16-.92 2.04-1.44t1.68-.76q.4-.12.8-.16.44-.04.88-.04 1.4 0 2.28.64.92.6 1.24 1.76.88-.72 1.68-1.2.84-.48 1.64-.76.56-.2 1.12-.28.6-.12 1.2-.12 1.6 0 2.6.88 1.04.88 1.04 2.28 0 .2-.04.4v.32q-.04.08-.04.2 0 .08-.04.16l-1.08 5.12q0 .04-.04.08v.08l-.08.48q-.04.24-.04.36 0 .52.32.88.36.36.84.36h.16q.12 0 .24-.04.08 0 .16-.04l.2-.08.56-.2q.24-.08.4-.08.24 0 .4.2.2.2.2.48-.04.44-.4 1-.36.52-1.04 1.08-.12.12-.28.24l-.28.2q-.76.56-1.6.92-.84.32-1.72.48l-.64.08q-.32.04-.64.04-1.68 0-2.76-.88-1.04-.92-1.04-2.36v-.24q.04-.16.04-.32.04-.08.04-.12.04-.08.04-.16l.96-4.16q.08-.2.08-.4.04-.2.04-.36 0-.64-.28-.92-.28-.32-.84-.32-.76 0-1.24.6t-.8 2l-.96 4.52q-.28 1.36-1.04 2.08-.76.68-1.92.68h-2.4q-.28.04-.56.16-.32.12-.64.32l-.68.56 1.96-8.92q.04-.12.04-.24.04-.12.04-.24.04-.12.04-.24v-.36q0-.44-.28-.72t-.72-.28q-.76 0-1.28.64t-.84 2.04l-1 4.52q-.32 1.52-1.04 2.16-.72.6-2.16.6h-2.2q-.36.04-.68.2-.24.12-.52.32t-.64.52z"/><path d="M144.09 49.76v.2q0 .76.56 1.24.6.44 1.48.44.48 0 1.12-.12.64-.16 1.28-.44l.48-.16.48-.24q.08-.04.12-.04l.08-.08.32-.16q.28-.16 1.36-.84.16-.08.32-.12.16-.08.32-.12.08-.04.16-.04t.16 0q.4 0 .64.24.28.24.28.68 0 .64-.56 1.4t-1.6 1.6q-1.76 1.36-3.6 2.08-1.8.68-3.64.68-3.04 0-5-1.8-1.92-1.8-1.92-4.72 0-3.8 3.16-6.64 3.2-2.84 7.44-2.84 2.28 0 3.72 1.16 1.48 1.16 1.48 3 0 2.28-2.44 3.88-2.4 1.56-6.2 1.76zm.4-3.6q1.64-.24 2.4-.68.8-.44.8-1.12 0-.4-.24-.64-.24-.28-.6-.28-.76 0-1.4.72t-.96 2zM178.09 42.4l-1.48 6.64-.2.88q-.04.32-.04.52-.04.4.32.76.36.32.84.32h.28l.28-.08h.12l.16-.08q.32-.12.56-.16.24-.08.4-.08.24 0 .44.24.2.2.2.48 0 .32-.2.72-.2.36-.6.72l-.24.24q-.08.08-.2.16-.76.68-1.68 1.16-.88.48-1.8.72-.48.12-1 .2-.48.08-.96.08-1.44 0-2.36-.88-.92-.92-.92-2.32v-.4q0-.24.04-.52-.72.88-1.08 1.36-.36.44-.68.76-.04.04-.12.08l-.08.08q-.08.12-.16.2t-.2.16q-.44.44-.96.76t-1.08.52q-.4.12-.76.2t-.72.08q-1.76 0-2.92-1.44-1.16-1.48-1.16-3.8 0-4.04 2.72-7.32 2.76-3.32 6.08-3.32 1.16 0 2.12.44 1 .4 1.76 1.28 1.08-.76 1.68-1.08.64-.36 1.2-.48.16-.04.36-.04.2-.04.4-.04.8 0 1.28.44.48.4.48 1.08 0 .12-.04.32 0 .2-.08.44zm-8.12 1.8q-.84-.04-1.56.76-.68.8-.68 1.84 0 .68.32 1.08.36.4 1 .4.8 0 1.44-.84.68-.88.72-1.88v-.12q0-.56-.32-.88t-.92-.36zM212.61 29.48q.96-.96 1.88-1.72t1.84-1.28q1.28-.76 2.56-1.12 1.32-.36 2.72-.36 1.64 0 2.72 1 1.12.96 1.12 2.36 0 1.2-.84 2.08-.8.88-1.92.88-.68 0-.88-.2-.16-.24-.2-1.08-.04-.28-.44-.48-.36-.24-.88-.24-.84 0-1.88.56-1 .56-2.16 1.72 2.68 2.2 3.88 4.88 1.24 2.64 1.24 6.12 0 5.8-3.4 9.64-3.36 3.8-8.44 3.8-.44 0-.84-.04-.4 0-.8-.04-.88-.12-1.88-.44-.96-.28-2.6-.92-.16-.08-.48-.16l-.68-.28q-1.96 1.64-4.08 2.44t-4.64.8q-3.24 0-5.24-1.48-2-1.44-2-3.8 0-2.08 1.64-3.48 1.64-1.44 4.08-1.44h.48q.28 0 .52.04 1.56.08 3.44.6 1.88.48 5.36 1.68.2-.28.36-.56.2-.28.36-.56.16-.24.28-.48.16-.24.28-.52.4-.8.88-1.96.48-1.2 1.24-3.2l.84-2.24.64-1.48.08-.24.16-.28.24-.48q.12-.28.28-.56-.52-.12-.92-.16-.36-.08-.68-.12h-.48q-1.96 0-3.36 1.08-1.36 1.08-1.36 2.6 0 .76.48 1.16.52.4 1.44.44.6.04.84.24.28.16.28.6 0 .12-.04.24 0 .08-.04.16-.28 1.04-1.92 1.96-1.6.92-3.48 1.12-.24 0-.48.04h-.4q-2.84 0-4.68-1.8-1.84-1.84-1.84-4.72 0-4.88 4.32-8.32 4.36-3.48 10.4-3.48 1.56 0 3 .28 1.48.24 2.92.76.28.08.56.2l.6.24zm-13.6 23.08q-.32-.16-.72-.28-.36-.16-.76-.28-.8-.24-1.56-.4-.72-.2-1.08-.2-.56 0-1 .36t-.44.88q0 .56.56 1 .56.4 1.32.4h.52q.28-.04.52-.12.56-.12 1.16-.44t1.48-.92zm6.64-1.84 1.04.32q.44.08.8.12h.44q2.36 0 4.08-2.2 1.76-2.2 1.76-5.16 0-1.52-.6-2.8t-1.8-2.28l-.36.64q-.16.24-.28.52-.04.04-.08.12-.04.04-.08.12l-.24.52-.28.68q-.04.08-.08.12v.08l-.24.56q-.16.48-1.16 3-.4.96-.72 1.68t-.6 1.36q-.2.36-.4.68-.16.32-.36.64t-.4.64-.44.64z"/><path d="M230.85 40.04q2.96 0 4.72 1.8 1.8 1.76 1.8 4.64 0 3.92-2.76 6.64t-6.76 2.72q-2.88 0-4.76-1.8-1.84-1.8-1.84-4.6 0-3.92 2.8-6.64 2.8-2.76 6.8-2.76zm-.64 3.96q-.8 0-1.48.84-.64.8-.64 1.84 0 .76.36 1.24.4.44 1 .44.84 0 1.48-.8.68-.84.68-1.92 0-.72-.4-1.16-.36-.48-1-.48z"/><path d="m236.17 56.36 2.52-11.4.12-.88q.08-.4.08-.64 0-.44-.2-.72-.2-.32-.68-.56 1.52-1.16 2.8-1.68 1.32-.56 2.56-.56 1.16 0 1.72.56.6.52.68 1.68 1.32-1.16 2.68-1.72 1.4-.56 2.8-.56 1.6 0 2.6.92 1 .88 1 2.32 0 .16-.04.4 0 .24-.04.44 0 .08-.04.16 0 .08-.04.16l-1.16 5q-.08.4-.16.68-.04.24-.04.44-.04.44.32.76t.92.32q.2 0 .36-.04l.36-.08.64-.2q.28-.08.4-.08.28 0 .44.2t.16.52q0 .52-.56 1.2-.52.64-1.48 1.32-.88.6-1.92.96-1 .36-2.04.44-.16.04-.36.04h-.32q-1.72 0-2.72-.88-.96-.88-.96-2.36v-.24q.04-.16.04-.32.04-.04.04-.12.04-.08.04-.16l.88-4.24v-.08q.04-.08.04-.12.04-.2.04-.36.04-.2.04-.32 0-.48-.32-.76-.28-.28-.8-.28-.76 0-1.32.64t-.84 1.8l-1.08 4.8q-.28 1.24-1.08 1.96-.76.72-1.8.72h-1.68q-.68 0-1.16.08-.44.12-.88.4l-.28.16q-.12.12-.28.24z"/><path d="m273.37 42.8-1.36 6.28-.16.76q-.04.32-.04.48 0 .52.32.88.32.32.8.32.2 0 .4-.04l.44-.16q.28-.12.52-.16.24-.08.4-.08.24 0 .44.2t.2.44q0 .32-.2.72-.2.36-.52.72-.24.28-.56.56t-.68.52q-.56.4-1.2.72-.6.28-1.24.48t-1.28.28q-.6.12-1.16.12-1.44 0-2.32-.72t-.96-1.96q-.6.52-1.24 1-.64.44-1.32.76-.88.48-1.72.68-.84.24-1.6.24-1.52 0-2.6-.88-1.08-.92-1.08-2.2v-.36l.08-.4 1.48-7.12q.08-.28.08-.52.04-.28.04-.48 0-.44-.16-.72-.16-.32-.56-.6-.08-.04-.12-.04-.04-.04-.12-.08.4-.32.8-.6t.84-.56q.96-.56 1.92-.88t1.76-.32q1.08 0 1.68.6.64.56.64 1.6v.4q0 .04-.04.08v.04l-1.16 5.56-.08.48q-.04.2-.04.32 0 .48.28.76.32.28.8.28.84 0 1.36-.56.52-.6.84-1.88l.68-2.88v-.08q.04-.08.04-.12.08-.24.08-.48.04-.24.04-.4 0-.4-.16-.64-.12-.24-.48-.48-.08-.08-.2-.12-.12-.08-.24-.12 1.32-1.04 2.44-1.6t2.2-.72h.4q.2-.04.4-.04 1.04 0 1.64.56.64.56.64 1.52v.16q0 .08-.04.16 0 .08-.04.16v.16z"/><path d="M283.05 40.28h1.92q.6 0 .88.28.32.24.32.76 0 1.44-.48 2.16-.48.68-1.48.68h-2.08l-.08.2v.12l-.12.48q-.08.32-.32 1.48-.04.24-.16.76l-.28 1.16q-.12.44-.2.88-.04.4-.04.76 0 .76.44 1.2.48.44 1.36.44.32 0 .68-.08.4-.12.92-.32.28-.12.52-.16.24-.08.4-.08.28 0 .44.2.2.16.2.48 0 .44-.4 1-.36.52-1.12 1.12-.12.08-.24.2l-.28.16q-.84.6-1.88 1-1.04.36-2.08.48-.28.04-.56.04-.24.04-.52.04-2.04 0-3.4-1.12t-1.36-2.84v-.64q.08-.56.28-1.36.24-.8.92-2.84.16-.52.24-.88l.24-.72.08-.32.08-.36v-.24l.08-.24q-.72-.08-1.08-.4-.32-.32-.32-.96v-.2q.04-.12.04-.24.16-.52.84-1.2.72-.72 2.56-2.28 1.92-1.64 3.16-2.4t1.88-.76q.44 0 .72.28.28.24.24.64 0 .2-.08.44-.04.24-.16.56-.04.12-.12.28l-.08.32-.08.28-.08.24-.24.88-.12.64z"/></g><path d="M-13.57 23.08c-7.03 0-13.91 1.89-19.22 5.57-5.3 3.67-9.03 9.3-9.03 16.16 0 6.85 3.72 12.48 9.03 16.16 5.3 3.68 12.19 5.57 19.22 5.57s13.91-1.9 19.22-5.57c5.3-3.68 9.03-9.31 9.03-16.16s-3.73-12.49-9.03-16.17c-5.31-3.67-12.2-5.56-19.22-5.56zm0 10.86c4.78 0 8.69 2.4 8.69 5.44s-3.91 5.43-8.7 5.43-8.68-2.4-8.68-5.44 3.9-5.43 8.69-5.43z" fill-rule="nonzero"/><path d="M-37.2 47.6c1.22.8 1.34 2.24 3.4 3.73 2.16 1.52 3.96-.19 5.7.68 1.52.43 4.75 3.23 8 3.66 2.61.22 5.21-1.76 6.73-1.76 1.74 0 3.5 2 6.11 1.35.7-.17 1.33-.49 1.94-.83.9-.5 1.78-1.08 2.82-1.34 1.52-.43 3.7.18 6.31-.47 2.18-.44 1.77-2.35 3.94-3.88.94-.62 1.59-.55 2.17-.4C9 52.02 6.6 55.02 3.2 57.37c-4.42 3.06-10.55 4.82-16.77 4.82s-12.35-1.76-16.78-4.82c-3.62-2.51-6.08-5.75-6.85-9.78z" fill="#fff" fill-rule="nonzero"/><g fill="none" stroke="#fff" stroke-width="2.17"><path d="m-24.77 30.4 1.74 2.73M-33.13 36.23l2.28-2.29M-22.59 46.5l2.82 1.57M-9.7 51.57l2.48-2.06M-1.42 43.72l3.04 1.08M3.46 38.62 2.1 35.69M-7.42 30.71l3.08-.97M-17.68 28.91l3.23.11M-31.35 42.93l3.05 1.05"/></g></svg>