<?xml version="1.0" encoding="UTF-8" standalone="no"?><!DOCTYPE svg PUBLIC "-//W3C//DTD SVG 1.1//EN" "http://www.w3.org/Graphics/SVG/1.1/DTD/svg11.dtd"><svg width="100%" height="60" viewBox="0 0 368 90" version="1.1" xmlns="http://www.w3.org/2000/svg" xmlns:xlink="http://www.w3.org/1999/xlink" xml:space="preserve" xmlns:serif="http://www.serif.com/" style="fill-rule:evenodd;clip-rule:evenodd;stroke-linecap:round;stroke-linejoin:round;stroke-miterlimit:1.5;"><path d="M368,18.849c0,-10.403 -8.446,-18.849 -18.849,-18.849l-330.316,-0c-10.403,-0 -18.849,8.446 -18.849,18.849l0,52.302c0,10.403 8.446,18.849 18.849,18.849l330.316,0c10.403,0 18.849,-8.446 18.849,-18.849l0,-52.302Z" style="fill:#fddb23;"/><text x="91.528px" y="56.44px" style="font-family:'Candice';font-size:40px;fill:#fff;">B<tspan x="126.928px 145.368px 162.648px 170.408px 198.328px 213.568px 221.328px 239.688px 247.448px 282.448px 297.848px 316.648px 335.088px " y="56.44px 56.44px 56.44px 56.44px 56.44px 56.44px 56.44px 56.44px 56.44px 56.44px 56.44px 56.44px 56.44px ">uy me a Donut</tspan></text><text x="90.528px" y="55.44px" style="font-family:'Candice';font-size:40px;">B<tspan x="125.928px 144.368px 161.648px 169.408px 197.328px 212.568px 220.328px 238.688px 246.448px 281.448px 296.848px 315.648px 334.088px " y="55.44px 55.44px 55.44px 55.44px 55.44px 55.44px 55.44px 55.44px 55.44px 55.44px 55.44px 55.44px 55.44px ">uy me a Donut</tspan></text><g id="g1021"><path id="path2" d="M47.75,23.077c-7.028,-0 -13.912,1.893 -19.219,5.57c-5.304,3.674 -9.031,9.311 -9.031,16.161c-0,6.849 3.727,12.486 9.031,16.163c5.307,3.675 12.191,5.567 19.219,5.567c7.028,0 13.912,-1.892 19.219,-5.569c5.304,-3.675 9.031,-9.312 9.031,-16.161c0,-6.85 -3.727,-12.487 -9.031,-16.164c-5.307,-3.674 -12.191,-5.567 -19.219,-5.567Zm0,10.865c4.779,0 8.692,2.395 8.692,5.433c0,3.038 -3.913,5.433 -8.692,5.433c-4.779,-0 -8.692,-2.395 -8.692,-5.433c-0,-3.038 3.913,-5.433 8.692,-5.433Z" style="fill-rule:nonzero;"/><path id="path21" serif:id="path2" d="M24.118,47.591c1.223,0.807 1.349,2.25 3.396,3.736c2.173,1.519 3.964,-0.187 5.705,0.68c1.519,0.433 4.752,3.234 8.012,3.666c2.605,0.222 5.204,-1.767 6.723,-1.767c1.741,0 3.505,2.013 6.111,1.359c0.7,-0.174 1.325,-0.49 1.935,-0.833c0.906,-0.51 1.779,-1.081 2.82,-1.341c1.519,-0.432 3.709,0.181 6.315,-0.473c2.173,-0.433 1.766,-2.352 3.939,-3.873c0.941,-0.628 1.587,-0.558 2.173,-0.406c-0.925,3.683 -3.329,6.68 -6.723,9.031c-4.422,3.064 -10.552,4.822 -16.774,4.822c-6.222,0 -12.352,-1.758 -16.774,-4.822c-3.625,-2.512 -6.087,-5.754 -6.858,-9.779Z" style="fill:#fff;fill-rule:nonzero;"/><path id="path4" d="M36.554,30.409l1.741,2.721" style="fill:none;stroke:#fff;stroke-width:2.17px;"/><path id="path6" d="M28.192,36.226l2.282,-2.284" style="fill:none;stroke:#fff;stroke-width:2.17px;"/><path id="path8" d="M38.734,46.494l2.821,1.573" style="fill:none;stroke:#fff;stroke-width:2.17px;"/><path id="path10" d="M51.618,51.572l2.482,-2.064" style="fill:none;stroke:#fff;stroke-width:2.17px;"/><path id="path12" d="M59.9,43.721l3.044,1.078" style="fill:none;stroke:#fff;stroke-width:2.17px;"/><path id="path14" d="M64.778,38.619l-1.347,-2.934" style="fill:none;stroke:#fff;stroke-width:2.17px;"/><path id="path16" d="M53.898,30.713l3.079,-0.971" style="fill:none;stroke:#fff;stroke-width:2.17px;"/><path id="path18" d="M43.645,28.914l3.227,0.106" style="fill:none;stroke:#fff;stroke-width:2.17px;"/><path id="path20" d="M29.976,42.93l3.051,1.054" style="fill:none;stroke:#fff;stroke-width:2.17px;"/></g></svg>